<?xml version="1.0" standalone="no"?>
<!DOCTYPE svg PUBLIC "-//W3C//DTD SVG 20010904//EN"
 "http://www.w3.org/TR/2001/REC-SVG-20010904/DTD/svg10.dtd">
<svg version="1.0" xmlns="http://www.w3.org/2000/svg"
 width="2560.000000pt" height="1812.000000pt" viewBox="0 0 2560.000000 1812.000000"
 preserveAspectRatio="xMidYMid meet">

<g transform="translate(0.000000,1812.000000) scale(0.100000,-0.100000)"
fill="#000000" stroke="none">
<path d="M0 9060 l0 -9060 12800 0 12800 0 0 9060 0 9060 -12800 0 -12800 0 0
-9060z m7865 2830 c88 -11 159 -18 380 -40 61 -5 137 -15 170 -20 33 -5 98
-12 145 -15 132 -8 200 -17 206 -26 3 -5 16 -9 30 -9 13 0 24 -4 24 -10 0 -5
5 -10 11 -10 5 0 7 6 3 13 -6 9 -4 9 8 -1 12 -9 17 -10 20 -1 2 6 15 11 28 11
30 1 374 -30 410 -37 14 -2 59 -7 100 -10 186 -14 225 -17 390 -35 246 -27
462 -47 625 -60 77 -6 176 -15 220 -20 94 -12 705 -75 915 -95 80 -7 233 -23
340 -34 588 -61 1039 -107 1235 -126 83 -7 283 -27 445 -44 162 -17 367 -37
455 -46 229 -21 446 -43 550 -55 50 -6 230 -24 400 -40 171 -16 375 -36 455
-45 80 -9 262 -27 405 -40 339 -32 454 -43 604 -60 l124 -15 51 -48 c153 -145
1306 -1302 1328 -1333 18 -24 24 -43 21 -62 l-5 -27 -242 5 c-253 4 -295 8
-305 23 -5 8 -113 23 -166 23 -11 0 -22 4 -25 9 -3 4 -56 11 -119 14 -62 4
-118 9 -123 12 -5 3 -44 10 -86 14 -71 8 -228 33 -377 61 -33 6 -100 11 -149
10 -49 0 -97 4 -106 9 -10 5 -59 12 -111 15 -156 9 -223 18 -237 32 -7 7 -29
13 -49 13 -19 0 -114 13 -211 30 -98 16 -229 32 -292 35 -63 4 -139 10 -168
15 -29 5 -65 7 -81 4 -19 -4 -38 0 -57 12 -15 11 -46 20 -69 22 -134 9 -181
15 -186 23 -11 19 -69 27 -200 28 -73 1 -136 6 -139 12 -7 10 -66 7 -77 -4
-13 -14 -104 -7 -119 8 -9 9 -34 15 -62 15 -82 0 -215 19 -223 32 -6 9 -13 9
-33 0 -16 -7 -26 -8 -26 -2 0 6 5 10 12 10 6 0 9 2 6 5 -3 3 -79 10 -169 16
-90 5 -222 14 -294 20 -71 5 -157 11 -190 12 -33 2 -71 8 -85 14 -14 5 -67 13
-119 17 -72 5 -100 12 -120 27 -16 13 -38 20 -61 18 -39 -2 -100 10 -100 20 0
7 -24 9 -150 14 -36 1 -70 5 -75 9 -6 3 -100 12 -210 18 -127 8 -203 16 -207
24 -4 6 -15 11 -25 12 -47 3 -53 5 -53 23 0 16 -11 20 -76 26 -53 5 -79 3 -84
-4 -7 -13 -40 -4 -40 10 0 14 -38 11 -43 -3 -4 -10 -8 -10 -15 1 -9 12 -17 13
-50 3 -29 -9 -59 -9 -108 -2 -38 5 -72 10 -76 10 -5 0 -8 7 -8 15 0 8 -9 15
-20 15 -11 0 -20 -4 -20 -10 0 -13 -97 -13 -102 0 -4 12 -141 32 -171 25 -12
-3 -47 -1 -77 4 -33 6 -59 6 -65 0 -15 -15 -65 -11 -65 6 0 8 -10 17 -22 19
-35 8 -297 30 -492 42 -87 5 -114 10 -130 25 -12 12 -34 19 -59 19 -21 0 -65
6 -96 14 -31 8 -77 14 -103 14 -32 -1 -54 4 -67 16 -17 16 -61 27 -176 45 -52
8 -105 29 -105 41 0 4 -20 13 -44 19 -24 6 -46 18 -50 26 -9 25 -67 54 -95 49
-18 -4 -40 4 -74 26 -26 18 -54 29 -63 26 -8 -3 -13 -2 -10 3 7 11 -38 41 -62
41 -10 0 -34 18 -55 40 -20 22 -41 40 -47 40 -5 0 -10 7 -10 15 0 8 -3 14 -7
14 -22 -4 -33 3 -33 19 0 12 -14 25 -39 37 -22 10 -42 24 -45 31 -3 8 -12 14
-21 14 -8 0 -15 4 -15 8 0 5 -18 17 -40 28 -22 10 -40 22 -40 27 0 4 -9 7 -20
7 -11 0 -20 5 -20 12 0 9 -3 9 -12 0 -19 -19 -25 -14 -32 22 -9 46 -47 88 -82
90 -16 0 -30 4 -31 9 -7 20 0 27 27 27 41 0 39 25 -2 35 -18 4 -42 7 -53 6
-18 -1 -18 0 -5 11 9 7 14 21 12 31 -2 9 1 17 7 17 6 0 11 9 11 20 0 12 7 20
18 20 13 0 14 2 4 9 -11 7 -11 11 0 22 11 10 42 14 116 14 56 0 102 3 102 6 0
3 40 6 90 5 49 -1 90 -3 90 -6 0 -3 65 -5 145 -5 80 0 145 4 145 9 0 4 14 6
30 4 25 -4 31 -1 36 19 5 17 13 23 33 22 23 0 24 -1 6 -9 -17 -7 -15 -9 13 -9
22 -1 32 4 32 14 0 11 -11 15 -40 15 -22 0 -40 5 -40 10 0 14 -37 12 -44 -2
-6 -16 -46 27 -46 48 0 8 -7 14 -15 14 -8 0 -15 -9 -15 -20 0 -19 -7 -20 -200
-20 -193 0 -200 1 -200 20 0 24 -13 26 -34 5 -17 -17 -83 -20 -88 -4 -2 5 -11
7 -21 4 -9 -4 -15 -11 -12 -16 11 -17 -70 -21 -181 -10 -117 12 -146 7 -167
-26 -12 -19 -97 -17 -97 2 0 19 -69 17 -88 -2 -18 -18 -52 -17 -52 2 0 8 -6
15 -12 15 -9 0 -8 4 2 10 12 8 10 10 -10 11 -14 1 -37 1 -52 0 -34 -3 -88 25
-88 44 0 10 -10 15 -28 15 -15 0 -36 6 -47 14 -18 12 -65 38 -195 107 -25 13
-47 26 -50 29 -8 8 -61 38 -97 55 -18 8 -33 20 -33 25 0 6 -8 10 -18 10 -28 0
-103 40 -97 50 4 6 -1 10 -9 10 -8 0 -18 5 -22 12 -8 12 62 9 241 -12z m4115
-1620 c0 -5 -5 -10 -11 -10 -5 0 -7 5 -4 10 3 6 8 10 11 10 2 0 4 -4 4 -10z
m393 -77 c-7 -2 -19 -2 -25 0 -7 3 -2 5 12 5 14 0 19 -2 13 -5z m-2360 -890
c-7 -2 -19 -2 -25 0 -7 3 -2 5 12 5 14 0 19 -2 13 -5z m-48 -11 c-6 -5 -44
-19 -85 -31 -41 -13 -95 -31 -120 -41 -86 -34 -371 -122 -377 -116 -4 3 -4 8
-2 10 6 7 565 182 589 185 2 1 0 -3 -5 -7z m7690 -22 c4 -6 62 -10 141 -10
106 0 134 -3 128 -12 -6 -10 -4 -10 7 -2 17 14 201 17 209 4 5 -9 107 -26 197
-33 39 -4 105 -48 83 -55 -8 -3 -18 -9 -21 -14 -3 -5 -25 -6 -48 -2 -29 5 -38
10 -29 15 8 5 -6 9 -37 9 -28 0 -56 5 -62 11 -11 11 -85 15 -101 5 -6 -3 -13
-2 -16 3 -3 5 -30 7 -58 5 -33 -3 -48 -1 -40 4 9 6 -21 12 -79 16 -51 4 -97
10 -103 14 -11 7 -67 12 -123 12 -17 0 -34 4 -38 10 -3 5 -27 10 -53 10 -34 0
-43 3 -32 10 20 13 67 13 75 0z m-6165 -274 c0 -3 -4 -8 -10 -11 -5 -3 -10 -1
-10 4 0 6 5 11 10 11 6 0 10 -2 10 -4z m2330 -376 c0 -5 -4 -10 -10 -10 -5 0
-10 5 -10 10 0 6 5 10 10 10 6 0 10 -4 10 -10z m60 -10 c0 -5 -5 -10 -11 -10
-5 0 -7 5 -4 10 3 6 8 10 11 10 2 0 4 -4 4 -10z m-3565 -40 c3 -6 -4 -10 -17
-10 l-23 0 25 -20 c20 -16 41 -20 103 -20 44 0 77 -4 77 -10 0 -5 7 -10 15
-10 8 0 19 -8 24 -19 13 -24 41 -35 41 -17 0 8 -10 17 -22 21 -16 4 -19 8 -9
12 8 3 9 8 3 12 -6 4 -5 11 4 19 12 10 14 10 14 -2 0 -10 6 -13 15 -10 9 4 15
19 15 35 l0 29 133 0 c117 0 136 -2 154 -19 22 -21 73 -18 73 5 0 8 7 14 15
14 8 0 15 -4 15 -10 0 -5 -4 -10 -10 -10 -5 0 -10 -5 -10 -10 0 -6 25 -10 62
-9 39 1 63 -2 66 -9 5 -15 122 -16 122 -2 0 14 37 12 43 -2 4 -10 8 -9 17 2 9
11 13 12 17 3 2 -8 22 -13 44 -13 21 0 39 -4 39 -10 0 -5 18 -10 39 -10 31 0
41 -4 46 -20 9 -29 43 -25 75 10 26 27 34 30 94 30 37 0 66 -4 66 -10 0 -6 30
-10 70 -10 40 0 70 -4 70 -10 0 -5 9 -10 20 -10 11 0 20 -4 20 -10 0 -6 29
-10 68 -10 56 0 70 3 82 20 8 11 18 20 22 20 4 0 8 -9 8 -20 0 -19 7 -20 150
-20 137 0 171 6 140 25 -20 13 16 32 73 38 39 5 57 4 57 -4 0 -7 15 -10 40 -7
22 2 40 0 40 -4 0 -5 15 -9 33 -9 l32 -2 -35 -7 c-32 -7 -33 -7 -7 -9 16 0 35
-8 44 -16 9 -9 23 -13 34 -10 11 4 19 2 19 -4 0 -6 11 -11 25 -11 41 0 31 28
-12 35 -64 11 -61 15 7 11 36 -2 90 -10 120 -17 45 -10 51 -13 35 -21 -15 -6
-13 -7 10 -3 17 3 35 6 40 6 33 1 212 -28 325 -51 25 -5 70 -13 100 -16 38 -5
49 -9 35 -14 -11 -4 5 -6 35 -4 30 1 98 -6 150 -16 86 -17 295 -51 395 -66 22
-3 56 -9 75 -14 19 -4 81 -14 137 -21 83 -11 103 -16 106 -31 3 -11 14 -18 29
-17 23 2 23 2 1 6 -13 2 -23 9 -23 14 0 12 -3 12 125 -12 61 -12 139 -25 175
-29 107 -13 130 -20 130 -41 0 -11 5 -19 11 -19 5 0 7 5 4 10 -3 6 1 10 9 10
9 0 16 5 16 10 0 6 8 10 18 10 16 1 16 1 -1 14 -15 12 -9 14 47 12 40 0 70 4
77 12 7 6 17 12 22 12 5 0 1 -8 -9 -17 -16 -17 -16 -18 -1 -21 10 -2 15 -8 12
-12 -3 -5 -16 -5 -30 0 -19 7 -23 6 -18 -5 6 -17 63 -21 63 -5 0 13 28 13 82
0 40 -9 354 -60 408 -66 14 -1 50 -7 80 -13 30 -6 98 -18 150 -26 52 -8 133
-22 179 -30 64 -10 97 -11 133 -4 26 6 48 14 48 18 0 5 27 23 60 40 75 40 79
33 6 -8 -81 -47 -91 -69 -36 -78 134 -20 234 -36 270 -44 88 -21 221 -23 270
-4 79 29 80 29 80 6 0 -11 -5 -21 -12 -21 -6 0 -8 -3 -5 -7 4 -3 41 -8 83 -9
46 -2 85 -9 98 -18 13 -8 56 -17 97 -21 41 -4 106 -16 144 -26 39 -11 84 -24
100 -29 17 -4 54 -14 84 -20 41 -10 50 -15 37 -22 -12 -7 -16 -23 -16 -65 l0
-56 36 6 c30 5 35 3 30 -10 -4 -9 -4 -31 0 -49 4 -24 10 -31 22 -27 15 4 15 3
0 -9 -9 -7 -59 -39 -110 -72 -101 -64 -146 -93 -283 -182 -49 -32 -98 -63
-107 -69 -36 -21 -165 -102 -368 -232 -194 -125 -228 -145 -286 -173 -104 -50
-267 -63 -464 -35 -99 14 -154 24 -425 76 -60 12 -141 27 -180 34 -92 16 -224
43 -305 60 -36 8 -101 19 -145 25 -44 6 -93 16 -110 21 -27 8 -203 42 -440 85
-44 8 -100 19 -125 24 -25 6 -58 13 -75 15 -16 3 -40 7 -52 10 -12 3 -41 7
-65 10 -24 3 -56 10 -73 15 -16 5 -64 14 -105 20 -41 6 -91 15 -110 20 -55 14
-178 37 -530 104 -14 3 -86 16 -160 31 -74 14 -180 34 -235 45 -236 43 -384
74 -380 80 3 4 -7 5 -20 2 -14 -2 -55 3 -92 12 -71 16 -153 32 -238 46 -27 5
-81 16 -120 25 -38 9 -106 23 -150 30 -44 8 -97 19 -118 25 -22 6 -45 9 -52 6
-7 -2 -21 6 -31 20 -11 13 -26 25 -34 25 -8 1 -1 5 15 9 20 5 1 7 -55 7 -55 0
-94 4 -110 14 l-25 14 28 3 c15 2 27 7 27 12 0 4 -9 6 -20 3 -14 -4 -20 0 -20
11 0 13 -12 16 -70 16 -69 0 -150 18 -150 32 0 5 -9 8 -20 8 -11 0 -20 -7 -20
-15 0 -11 -9 -15 -30 -13 -19 1 -30 8 -30 17 0 11 -4 10 -14 -4 -13 -18 -18
-18 -48 -7 -19 6 -48 12 -64 13 -16 1 -40 5 -54 9 -17 6 -5 7 35 5 33 -3 52
-2 43 1 -10 3 -18 11 -18 19 0 15 -55 40 -69 30 -6 -3 -11 -1 -11 4 0 6 -9 11
-20 11 -13 0 -20 7 -20 18 0 26 -67 42 -189 44 -58 0 -118 4 -134 7 -36 8 -49
31 -18 31 14 0 21 6 21 20 0 16 -7 20 -30 20 -20 0 -30 -5 -30 -15 0 -8 -8
-15 -17 -15 -10 0 -28 -3 -40 -6 -19 -5 -23 -2 -23 15 0 14 6 21 20 21 13 0
20 7 20 20 0 11 -4 20 -10 20 -6 0 -10 33 -10 80 0 73 -2 80 -20 80 -11 0 -20
5 -20 10 0 6 -9 10 -20 10 -17 0 -20 7 -20 51 0 31 4 48 10 44 6 -3 10 -22 10
-41 0 -19 5 -34 10 -34 6 0 10 7 10 16 0 27 28 47 58 41 50 -10 82 -26 82 -42
0 -19 7 -19 26 -1 20 21 18 38 -5 31 -11 -3 -22 -1 -26 5 -3 5 -19 10 -35 10
-16 0 -32 5 -35 10 -3 6 -24 10 -46 10 -21 0 -39 3 -39 6 0 11 29 34 44 34 9
0 16 7 16 15 0 8 5 15 10 15 6 0 10 -7 10 -15 0 -8 18 -23 40 -32 22 -10 40
-23 40 -30 0 -7 9 -13 20 -13 16 0 20 7 20 30 0 17 -4 30 -10 30 -5 0 -10 5
-10 12 0 9 3 9 12 0 20 -20 28 -14 28 23 0 29 -4 35 -21 35 -15 0 -20 6 -19
23 5 52 0 67 -20 67 -16 0 -20 7 -20 30 0 25 4 30 24 30 14 0 28 -4 31 -10z
m755 -1 c0 -6 -7 -9 -15 -5 -8 3 -15 2 -15 -3 0 -4 -13 -6 -30 -3 -46 7 -36
22 15 22 26 0 45 -5 45 -11z m1100 2 l45 -8 -40 -1 c-22 0 -53 4 -70 8 -27 7
-28 8 -5 8 14 0 45 -3 70 -7z m-90 -21 c0 -5 -4 -10 -10 -10 -5 0 -10 5 -10
10 0 6 5 10 10 10 6 0 10 -4 10 -10z m427 4 c-3 -3 -12 -4 -19 -1 -8 3 -5 6 6
6 11 1 17 -2 13 -5z m-109 -21 c-10 -2 -28 -2 -40 0 -13 2 -5 4 17 4 22 1 32
-1 23 -4z m359 -19 c-3 -3 -12 -4 -19 -1 -8 3 -5 6 6 6 11 1 17 -2 13 -5z
m246 -41 c-7 -2 -21 -2 -30 0 -10 3 -4 5 12 5 17 0 24 -2 18 -5z m-2718 -13
c3 -5 -1 -10 -9 -10 -9 0 -16 5 -16 10 0 6 4 10 9 10 6 0 13 -4 16 -10z m2842
-6 c-3 -3 -12 -4 -19 -1 -8 3 -5 6 6 6 11 1 17 -2 13 -5z m126 -21 c-7 -2 -21
-2 -30 0 -10 3 -4 5 12 5 17 0 24 -2 18 -5z m425 -59 c-10 -10 -21 -13 -29 -8
-12 7 0 14 41 23 2 1 -3 -6 -12 -15z m-55 -1 c-7 -2 -19 -2 -25 0 -7 3 -2 5
12 5 14 0 19 -2 13 -5z m104 -19 c-3 -3 -12 -4 -19 -1 -8 3 -5 6 6 6 11 1 17
-2 13 -5z m213 -34 c20 -6 21 -8 5 -8 -11 0 -33 4 -50 8 -27 7 -27 8 -5 8 14
0 36 -4 50 -8z m229 -36 c9 -8 -65 -2 -84 6 -13 6 -2 7 30 3 28 -3 52 -7 54
-9z m177 -3 c-10 -16 -62 -29 -77 -20 -10 6 -7 9 11 9 14 0 32 5 40 10 19 12
33 13 26 1z m-123 -8 c-7 -2 -21 -2 -30 0 -10 3 -4 5 12 5 17 0 24 -2 18 -5z
m192 -33 c3 -5 2 -10 -4 -10 -5 0 -13 5 -16 10 -3 6 -2 10 4 10 5 0 13 -4 16
-10z m52 -6 c-3 -3 -12 -4 -19 -1 -8 3 -5 6 6 6 11 1 17 -2 13 -5z m793 -14
c0 -5 -8 -10 -17 -10 -15 0 -16 2 -3 10 19 12 20 12 20 0z m360 6 c0 -2 -7 -7
-16 -10 -8 -3 -12 -2 -9 4 6 10 25 14 25 6z m-995 -16 l30 -8 -30 0 c-16 0
-41 4 -55 8 l-25 8 25 0 c14 0 39 -4 55 -8z m78 -17 c-7 -2 -21 -2 -30 0 -10
3 -4 5 12 5 17 0 24 -2 18 -5z m847 -13 c0 -5 -5 -10 -11 -10 -5 0 -7 5 -4 10
3 6 8 10 11 10 2 0 4 -4 4 -10z m310 -10 c0 -5 -8 -10 -17 -10 -15 0 -16 2 -3
10 19 12 20 12 20 0z m-371 -14 c-17 -18 -78 -53 -83 -49 -3 3 14 16 37 29 41
23 55 28 46 20z m676 -26 c-3 -5 -10 -10 -16 -10 -5 0 -9 5 -9 10 0 6 7 10 16
10 8 0 12 -4 9 -10z m-435 -30 c0 -5 -7 -10 -16 -10 -8 0 -12 5 -9 10 3 6 10
10 16 10 5 0 9 -4 9 -10z m955 -119 c6 -11 -33 -26 -43 -16 -4 3 0 10 8 15 19
12 27 12 35 1z m-6408 -107 c-3 -3 -12 -4 -19 -1 -8 3 -5 6 6 6 11 1 17 -2 13
-5z m43 -4 c0 -5 -4 -10 -10 -10 -5 0 -10 5 -10 10 0 6 5 10 10 10 6 0 10 -4
10 -10z m180 -40 c13 -9 13 -10 0 -10 -8 0 -22 5 -30 10 -13 9 -13 10 0 10 8
0 22 -5 30 -10z m457 -86 c-3 -3 -12 -4 -19 -1 -8 3 -5 6 6 6 11 1 17 -2 13
-5z m178 -34 c3 -5 1 -10 -4 -10 -6 0 -11 5 -11 10 0 6 2 10 4 10 3 0 8 -4 11
-10z m6285 -84 c0 -3 -4 -8 -10 -11 -5 -3 -10 -1 -10 4 0 6 5 11 10 11 6 0 10
-2 10 -4z m-9030 -48 c0 -19 -2 -20 -10 -8 -9 13 -12 13 -21 -3 -8 -14 -14
-16 -25 -6 -11 9 -15 8 -20 -4 -10 -28 -34 -29 -34 -2 0 19 5 25 21 25 11 0
17 5 14 10 -4 6 10 10 34 10 36 0 41 -3 41 -22z m320 -16 c0 -4 19 -7 43 -7
23 1 44 -2 47 -6 7 -10 151 -14 173 -4 23 10 109 -3 102 -16 -4 -5 7 -9 22 -9
16 0 34 -5 40 -11 6 -6 42 -13 79 -14 115 -6 168 -16 189 -35 12 -11 43 -20
80 -24 81 -8 261 -19 308 -18 20 0 37 -3 37 -7 0 -5 55 -11 123 -15 67 -3 140
-11 162 -17 22 -6 69 -14 104 -19 40 -5 69 -14 76 -24 9 -11 15 -12 23 -4 8 8
19 8 39 0 15 -6 64 -14 108 -17 44 -3 96 -12 115 -19 89 -33 130 -44 148 -39
11 2 23 0 26 -6 10 -15 46 -14 46 1 0 7 5 5 13 -4 6 -9 37 -20 67 -26 30 -5
91 -20 135 -32 44 -12 105 -26 135 -32 30 -5 61 -15 70 -22 8 -8 29 -16 45
-19 17 -3 50 -11 75 -17 74 -18 142 -28 200 -30 31 0 63 -7 74 -15 11 -8 37
-15 58 -15 22 0 53 -8 71 -17 18 -9 59 -20 92 -24 33 -4 80 -13 105 -19 25 -7
74 -14 110 -17 35 -3 73 -11 84 -19 11 -8 33 -14 48 -14 15 0 30 -4 33 -10 3
-5 28 -10 54 -10 27 0 66 -6 87 -14 22 -7 80 -19 129 -25 50 -7 108 -16 130
-21 22 -5 65 -12 95 -16 30 -3 61 -10 70 -14 43 -21 122 -40 183 -43 40 -2 72
-8 76 -15 4 -7 37 -15 75 -17 36 -3 74 -9 84 -14 9 -5 30 -7 45 -4 16 3 38 1
50 -5 12 -6 36 -13 52 -17 17 -3 48 -11 70 -16 22 -6 70 -14 106 -18 36 -4 77
-15 90 -24 13 -10 43 -17 69 -17 26 0 55 -7 66 -15 10 -8 35 -15 54 -15 20 0
41 -5 47 -11 6 -6 37 -15 69 -20 33 -5 68 -11 79 -13 136 -32 215 -47 270 -53
28 -3 54 -9 60 -14 5 -5 26 -9 46 -9 21 0 44 -7 53 -15 9 -10 39 -17 76 -20
53 -3 65 -8 88 -34 23 -25 34 -29 77 -29 54 0 77 -3 85 -13 13 -16 89 -47 130
-54 72 -11 140 -38 171 -67 16 -16 38 -28 49 -28 11 0 20 -4 20 -10 0 -5 5
-10 11 -10 16 0 39 -26 39 -44 0 -12 10 -16 39 -16 33 0 40 -4 51 -29 6 -16
10 -40 8 -53 -3 -22 -6 -23 -70 -20 -46 2 -68 0 -68 -8 0 -27 -30 -40 -90 -40
-34 0 -69 -4 -79 -10 -29 -15 -181 -25 -181 -11 0 6 -13 11 -30 11 -30 0 -41
-14 -17 -23 6 -2 8 -8 4 -13 -4 -5 -12 -2 -18 6 -6 11 -11 12 -16 4 -12 -17
-143 -30 -143 -14 0 12 -33 11 -226 -6 -57 -5 -74 -3 -87 10 -8 9 -32 16 -51
16 -20 0 -36 5 -36 10 0 6 -13 10 -30 10 -23 0 -30 -4 -30 -20 0 -11 -4 -20
-10 -20 -5 0 -10 5 -10 10 0 6 -4 10 -10 10 -5 0 -10 -7 -10 -15 0 -13 -19
-14 -136 -9 -138 6 -164 13 -164 47 0 20 -31 31 -42 15 -8 -10 -11 -10 -15 0
-2 6 -14 12 -26 12 -18 0 -19 -2 -7 -10 11 -7 2 -9 -30 -9 -37 1 -41 2 -20 9
21 7 19 8 -17 9 -24 1 -44 -4 -47 -11 -5 -10 -7 -10 -12 0 -3 6 -15 12 -27 12
-18 0 -19 -2 -7 -10 10 -6 -11 -9 -65 -8 -68 0 -83 4 -98 21 -19 23 -77 27
-387 31 -201 2 -220 4 -220 21 0 8 -9 15 -20 15 -11 0 -20 7 -20 15 0 12 -16
15 -80 15 -47 0 -80 4 -80 10 0 6 -7 10 -16 10 -8 0 -22 7 -30 15 -11 11 -37
15 -94 15 -57 0 -83 4 -94 15 -9 10 -34 15 -72 15 -53 0 -122 16 -134 31 -7 9
-101 18 -242 26 -91 4 -118 9 -118 19 0 8 -9 14 -20 14 -11 0 -20 6 -20 13 0
8 -16 13 -45 15 -25 1 -54 6 -65 12 -10 5 -30 10 -44 10 -14 0 -26 5 -26 10 0
6 -18 10 -40 10 -22 0 -40 5 -40 10 0 6 -18 10 -40 10 -22 0 -40 5 -40 10 0 6
-13 10 -30 10 -16 0 -30 -4 -30 -10 0 -13 -37 -13 -42 0 -1 5 -41 15 -88 21
-47 6 -87 15 -90 19 -22 32 -148 60 -277 63 -45 0 -63 4 -63 14 0 17 -17 17
-23 1 -4 -10 -8 -10 -14 -1 -4 6 -40 13 -78 16 -115 9 -145 17 -145 38 0 14
-7 19 -27 19 -16 1 -39 7 -53 15 -14 8 -40 14 -58 15 -31 0 -40 5 -78 39 -12
10 -36 12 -100 8 -76 -4 -84 -3 -84 13 0 29 -64 42 -88 18 -9 -9 -12 -6 -12
15 0 15 -4 27 -8 27 -5 0 -20 9 -33 21 -13 11 -36 23 -51 26 -15 3 -29 11 -32
19 -3 8 -12 14 -21 14 -18 0 -20 16 -2 23 6 3 -12 6 -40 6 -46 1 -53 4 -53 21
0 13 -7 20 -19 20 -11 0 -21 5 -23 12 -3 7 -25 11 -61 10 -47 -1 -61 3 -80 22
-17 17 -31 22 -51 19 -28 -6 -86 13 -86 28 0 5 -9 9 -20 9 -13 0 -20 7 -20 20
0 12 -7 20 -16 20 -9 0 -25 10 -35 21 -14 16 -25 20 -44 15 -14 -4 -25 -2 -25
4 0 5 -9 10 -20 10 -11 0 -20 5 -20 10 0 6 -12 10 -26 10 -15 0 -34 8 -43 18
-9 11 -28 22 -43 26 -16 3 -28 11 -28 16 0 6 -9 10 -20 10 -11 0 -20 -4 -20
-10 0 -21 -18 -9 -30 20 -7 16 -22 32 -34 35 -59 17 -76 28 -76 50 0 24 -29
35 -91 35 -19 0 -29 5 -29 14 0 8 -9 18 -20 21 -11 3 -20 15 -20 26 0 16 -7
19 -44 19 -62 0 -76 7 -76 41 0 28 -1 29 -54 29 -80 0 -86 4 -86 61 l0 49 65
0 c36 0 65 4 65 9 0 5 10 12 23 14 39 8 77 7 77 -1z m9260 -277 c0 -11 10 -13
53 -8 28 3 54 10 55 15 2 4 10 8 18 8 11 0 14 -16 14 -65 0 -63 -1 -65 -26
-65 -34 0 -54 -22 -54 -58 0 -17 -4 -32 -9 -34 -6 -1 -11 -23 -13 -46 -1 -29
-8 -48 -20 -56 -10 -7 -23 -27 -29 -44 -7 -21 -19 -33 -38 -37 -17 -3 -33 -16
-40 -31 -11 -25 -21 -39 -53 -75 -10 -10 -18 -25 -18 -33 0 -8 -16 -20 -36
-26 -19 -7 -38 -18 -40 -25 -3 -7 -19 -19 -35 -25 -16 -7 -29 -16 -29 -21 0
-5 -7 -9 -15 -9 -8 0 -15 -4 -15 -10 0 -5 -16 -10 -35 -10 -32 0 -35 -2 -35
-30 0 -21 -4 -28 -14 -24 -21 8 -74 -22 -81 -46 -6 -17 -12 -20 -36 -15 -24 6
-31 3 -40 -19 -10 -20 -19 -26 -46 -26 -23 0 -33 -5 -33 -15 0 -8 -7 -15 -15
-15 -8 0 -15 -4 -15 -9 0 -5 -9 -11 -20 -14 -11 -3 -24 -17 -30 -32 -10 -27
-12 -28 -68 -22 -31 3 -51 3 -44 0 9 -3 5 -12 -13 -28 -22 -18 -43 -23 -118
-28 -51 -3 -93 -11 -95 -17 -2 -5 -21 -10 -42 -10 -21 0 -40 -4 -42 -9 -4 -12
-118 8 -118 20 0 5 -7 9 -16 9 -29 0 -43 25 -38 66 3 30 2 34 -5 19 -8 -17
-10 -16 -10 12 -1 27 2 31 19 28 11 -2 20 2 20 8 0 7 4 6 11 -3 9 -12 10 -12
5 3 -6 19 17 51 28 40 3 -4 6 1 6 10 0 9 11 19 25 23 19 5 26 15 31 43 7 38
71 111 99 111 17 0 55 30 55 45 1 5 12 19 26 30 15 11 44 37 67 58 22 20 46
37 53 37 7 0 21 11 32 25 14 18 34 27 66 31 25 4 46 12 46 19 0 15 45 39 58
31 6 -4 19 5 29 19 35 49 76 86 90 81 17 -7 73 20 73 34 0 6 11 10 24 10 13 0
26 4 28 8 3 9 111 62 125 62 5 0 13 13 19 29 9 22 20 30 48 35 20 4 40 4 45 1
14 -8 61 13 61 27 0 15 45 38 74 38 12 0 28 5 36 10 22 14 40 12 40 -5z"/>
<path d="M8888 11763 c12 -2 30 -2 40 0 9 3 -1 5 -23 4 -22 0 -30 -2 -17 -4z"/>
<path d="M9328 11723 c6 -2 18 -2 25 0 6 3 1 5 -13 5 -14 0 -19 -2 -12 -5z"/>
<path d="M9688 11503 c7 -3 16 -2 19 1 4 3 -2 6 -13 5 -11 0 -14 -3 -6 -6z"/>
<path d="M12593 10203 c9 -2 25 -2 35 0 9 3 1 5 -18 5 -19 0 -27 -2 -17 -5z"/>
<path d="M17853 9233 c9 -2 23 -2 30 0 6 3 -1 5 -18 5 -16 0 -22 -2 -12 -5z"/>
<path d="M10840 8550 c0 -5 5 -10 10 -10 6 0 10 5 10 10 0 6 -4 10 -10 10 -5
0 -10 -4 -10 -10z"/>
<path d="M10892 8503 c10 -13 10 -17 1 -20 -7 -3 -13 -8 -13 -13 0 -12 28 -20
45 -14 26 10 17 39 -16 51 -27 11 -29 10 -17 -4z"/>
<path d="M10378 8423 c7 -3 16 -2 19 1 4 3 -2 6 -13 5 -11 0 -14 -3 -6 -6z"/>
<path d="M10423 8303 c9 -2 23 -2 30 0 6 3 -1 5 -18 5 -16 0 -22 -2 -12 -5z"/>
<path d="M14768 8163 c7 -3 16 -2 19 1 4 3 -2 6 -13 5 -11 0 -14 -3 -6 -6z"/>
<path d="M10420 8045 c0 -58 2 -65 20 -65 18 0 20 7 20 65 0 58 -2 65 -20 65
-18 0 -20 -7 -20 -65z"/>
<path d="M17240 7550 c0 -5 7 -10 15 -10 8 0 15 5 15 10 0 6 -7 10 -15 10 -8
0 -15 -4 -15 -10z"/>
<path d="M13840 5970 c0 -5 5 -10 10 -10 6 0 10 5 10 10 0 6 -4 10 -10 10 -5
0 -10 -4 -10 -10z"/>
<path d="M18050 7201 c0 -12 6 -21 16 -21 9 0 14 7 12 17 -5 25 -28 28 -28 4z"/>
</g>
</svg>
